<?xml version="1.0" encoding="UTF-8"?>
<svg xmlns="http://www.w3.org/2000/svg" version="1.1" viewBox="0 0 278.84 32.82">
  <defs>
    <style>
      .cls-1 {
        fill: #fff;
      }
    </style>
  </defs>
  <!-- Generator: Adobe Illustrator 28.7.1, SVG Export Plug-In . SVG Version: 1.2.0 Build 142)  -->
  <g>
    <g id="Layer_1">
      <g>
        <path class="cls-1" d="M0,32V1.73h7.65v30.27H0ZM6.83,24.02v-6.58h4.94c.93,0,1.74-.19,2.43-.56.68-.37,1.22-.9,1.6-1.58s.58-1.49.58-2.43-.19-1.78-.58-2.47-.92-1.21-1.6-1.56c-.69-.36-1.49-.53-2.43-.53h-4.94V1.73h4.73c2.58,0,4.81.43,6.68,1.3,1.88.86,3.32,2.1,4.34,3.72,1.01,1.62,1.52,3.55,1.52,5.8v.66c0,2.22-.51,4.14-1.52,5.76-1.02,1.62-2.46,2.87-4.34,3.74-1.88.88-4.11,1.32-6.68,1.32h-4.73Z"/>
        <path class="cls-1" d="M27.81,32V1.73h7.65v30.27h-7.65ZM33.52,22.79v-5.88h7.2c.9,0,1.69-.18,2.34-.54.66-.36,1.17-.86,1.54-1.52s.56-1.43.56-2.3-.19-1.69-.56-2.35-.88-1.16-1.54-1.52-1.44-.54-2.34-.54h-7.2V1.73h6.75c2.6,0,4.85.39,6.75,1.17,1.89.78,3.35,1.93,4.36,3.46,1.01,1.52,1.52,3.41,1.52,5.66v.66c0,2.25-.51,4.12-1.54,5.61-1.03,1.49-2.48,2.62-4.36,3.37-1.88.76-4.12,1.13-6.73,1.13h-6.75ZM45.91,32l-8.43-12.75h8.31l8.93,12.75h-8.8Z"/>
        <path class="cls-1" d="M72.64,32.82c-2.74,0-5.13-.47-7.16-1.42-2.03-.95-3.72-2.19-5.06-3.74-1.34-1.55-2.34-3.23-3-5.04-.66-1.81-.99-3.57-.99-5.27v-.91c0-1.89.34-3.75,1.03-5.57s1.71-3.48,3.08-4.96,3.06-2.66,5.08-3.54c2.02-.88,4.35-1.32,7.01-1.32s4.96.44,6.97,1.32c2.02.88,3.71,2.06,5.08,3.54s2.41,3.13,3.11,4.96,1.05,3.68,1.05,5.57v.91c0,1.7-.34,3.46-1.01,5.27-.67,1.81-1.68,3.49-3.02,5.04s-3.03,2.8-5.06,3.74c-2.03.95-4.4,1.42-7.12,1.42ZM72.64,25.67c1.32,0,2.5-.22,3.54-.66,1.04-.44,1.93-1.06,2.67-1.85.74-.79,1.3-1.72,1.69-2.78s.58-2.2.58-3.43c0-1.32-.2-2.51-.6-3.58-.4-1.07-.97-1.99-1.71-2.76-.74-.77-1.63-1.36-2.67-1.77-1.04-.41-2.21-.62-3.5-.62s-2.5.21-3.54.62c-1.04.41-1.93,1-2.67,1.77-.74.77-1.3,1.69-1.69,2.76s-.58,2.26-.58,3.58c0,1.23.19,2.38.58,3.43s.95,1.98,1.69,2.78c.74.8,1.63,1.41,2.67,1.85,1.04.44,2.22.66,3.54.66Z"/>
        <path class="cls-1" d="M103.04,32.82c-2.39,0-4.42-.44-6.11-1.32-1.69-.88-2.98-2.15-3.87-3.81-.89-1.66-1.34-3.67-1.34-6.03v-1.65h7.57v1.89c0,1.1.32,1.99.97,2.69.64.7,1.56,1.05,2.73,1.05s2.09-.35,2.74-1.05c.64-.7.97-1.6.97-2.69V7.82h7.65v13.86c0,2.36-.45,4.37-1.34,6.03-.89,1.66-2.17,2.93-3.85,3.81-1.67.88-3.72,1.32-6.13,1.32ZM95.1,8.64V1.97h19.25v6.66h-19.25Z"/>
        <path class="cls-1" d="M119.94,32V1.97h7.4v30.03h-7.4ZM126.53,8.23V1.97h12.42v6.25h-12.42ZM126.53,19.87v-6.25h11.81v6.25h-11.81ZM126.53,32v-6.25h12.67v6.25h-12.67Z"/>
        <path class="cls-1" d="M157.99,32.82c-2.71,0-5.05-.47-6.99-1.42-1.95-.95-3.55-2.19-4.81-3.74s-2.19-3.23-2.8-5.04c-.6-1.81-.9-3.57-.9-5.27v-.91c0-1.89.31-3.75.93-5.57.62-1.82,1.56-3.48,2.84-4.96s2.87-2.66,4.79-3.54c1.92-.88,4.17-1.32,6.75-1.32,2.74,0,5.18.51,7.3,1.54,2.12,1.03,3.83,2.47,5.12,4.32,1.29,1.85,2.04,4,2.26,6.44h-7.65c-.19-1.04-.6-1.95-1.23-2.71-.63-.77-1.44-1.36-2.43-1.79-.99-.43-2.11-.64-3.37-.64-1.18,0-2.24.21-3.19.62-.95.41-1.74.99-2.38,1.75-.65.75-1.14,1.67-1.48,2.73s-.52,2.28-.52,3.62.17,2.55.52,3.62.85,1.99,1.52,2.76c.67.77,1.49,1.35,2.45,1.75.96.4,2.06.6,3.29.6,1.92,0,3.54-.47,4.87-1.4,1.33-.93,2.13-2.18,2.41-3.74h7.65c-.25,2.25-1,4.31-2.26,6.17-1.26,1.87-2.96,3.35-5.1,4.46s-4.66,1.67-7.57,1.67Z"/>
        <path class="cls-1" d="M174.41,8.64V1.97h24.1v6.66h-24.1ZM182.63,32V7.82h7.65v24.19h-7.65Z"/>
        <path class="cls-1" d="M208.63,14.73v-5.43h10.37v5.43h-10.37ZM214.59,7.49c-1.37,0-2.38-.35-3.02-1.05-.65-.7-.97-1.6-.97-2.69s.32-2,.97-2.69c.64-.7,1.64-1.05,2.98-1.05s2.37.35,3,1.05c.63.7.95,1.6.95,2.69s-.32,2-.95,2.69-1.62,1.05-2.96,1.05ZM211.51,32V9.3h7.49v22.71h-7.49Z"/>
        <path class="cls-1" d="M235.53,32.82c-2.8,0-5.15-.44-7.05-1.32-1.91-.88-3.35-2.08-4.32-3.6s-1.46-3.27-1.46-5.24h7.4c0,.71.2,1.36.6,1.95s.99,1.05,1.79,1.38c.8.33,1.81.49,3.04.49,1.07,0,1.98-.14,2.73-.41.76-.27,1.33-.66,1.73-1.15.4-.49.6-1.08.6-1.77,0-.88-.37-1.56-1.11-2.04-.74-.48-1.99-.79-3.74-.92l-1.93-.16c-3.1-.27-5.57-1.25-7.41-2.92-1.84-1.67-2.76-3.89-2.76-6.66,0-1.98.46-3.66,1.38-5.06.92-1.4,2.21-2.47,3.89-3.21,1.67-.74,3.65-1.11,5.92-1.11,2.47,0,4.56.41,6.27,1.23,1.71.82,3.02,1.98,3.93,3.48.9,1.49,1.36,3.23,1.36,5.2h-7.4c0-.66-.16-1.26-.49-1.81-.33-.55-.8-.98-1.42-1.3-.62-.32-1.37-.47-2.24-.47-.82,0-1.52.13-2.08.39-.56.26-.99.62-1.27,1.09-.29.47-.43.99-.43,1.56,0,.77.26,1.43.78,1.97.52.55,1.43.88,2.71.99l1.93.16c2.25.19,4.24.68,5.96,1.46,1.73.78,3.08,1.84,4.07,3.19.99,1.34,1.48,2.99,1.48,4.94s-.5,3.65-1.5,5.1-2.43,2.58-4.28,3.37c-1.85.8-4.08,1.19-6.69,1.19Z"/>
        <path class="cls-1" d="M251.94,32V1.73h7.65v30.27h-7.65ZM257.66,22.79v-5.88h7.2c.9,0,1.69-.18,2.34-.54.66-.36,1.17-.86,1.54-1.52s.56-1.43.56-2.3-.19-1.69-.56-2.35-.88-1.16-1.54-1.52-1.44-.54-2.34-.54h-7.2V1.73h6.75c2.6,0,4.85.39,6.75,1.17s3.35,1.93,4.36,3.46c1.01,1.52,1.52,3.41,1.52,5.66v.66c0,2.25-.51,4.12-1.54,5.61-1.03,1.49-2.48,2.62-4.36,3.37-1.88.76-4.12,1.13-6.73,1.13h-6.75ZM270.04,32l-8.43-12.75h8.31l8.92,12.75h-8.8Z"/>
      </g>
    </g>
  </g>
</svg>